<svg xmlns="http://www.w3.org/2000/svg" width="19.535" height="29.86" viewBox="0 0 19.535 29.86">
  <path id="Calavera-Gorro" d="M29.578,32.07a2.32,2.32,0,1,1-2.32-2.32A2.321,2.321,0,0,1,29.578,32.07Zm5.7-2.32a2.32,2.32,0,1,0,2.32,2.32A2.321,2.321,0,0,0,35.279,29.75Zm5.68-.472A8.331,8.331,0,0,1,39.814,32.3a4.7,4.7,0,0,1,.521,1.041,3.273,3.273,0,0,1-.4,3.1,2.675,2.675,0,0,1-2.206,1.337l-.1,0A16.719,16.719,0,0,1,37.6,39.5c-.091.769-.352,1.6-2.3,1.754l-.044,0H34.247a4.325,4.325,0,0,1-1.507.332H29.914a4.322,4.322,0,0,1-1.507-.332H27.395l-.045,0c-1.949-.156-2.21-.985-2.3-1.75a17.326,17.326,0,0,1-.024-1.734,2.6,2.6,0,0,1-2.465-1.324,3.273,3.273,0,0,1-.4-3.1,4.722,4.722,0,0,1,.522-1.042,8.226,8.226,0,0,1-1.1-2.966,7.548,7.548,0,0,1,.736-4.437l.021.018c-.357-.348-.29-.764-.211-1.236.023-.137.052-.308.081-.518,0-.019.006-.038.011-.056l1.024-4.393a1.437,1.437,0,0,1,1.426-1.2h.382a5.279,5.279,0,0,1,2.942-2.918.721.721,0,0,1,0-.369.728.728,0,0,1,.242-.378.734.734,0,0,1,.427-.738.722.722,0,0,1,.2-.4.736.736,0,0,1,.4-.205.727.727,0,0,1,.3-.331.747.747,0,0,1,.371-.1h.029l.039,0a.729.729,0,0,1,.564-.266H30.6a.724.724,0,0,1,.24.04.723.723,0,0,1,.417-.13h.029a.723.723,0,0,1,.417.13.74.74,0,0,1,.24-.04h.029a.752.752,0,0,1,.188.024.727.727,0,0,1,.376.242l.039,0H32.6a.747.747,0,0,1,.371.1.727.727,0,0,1,.3.331.739.739,0,0,1,.4.205.722.722,0,0,1,.2.4.734.734,0,0,1,.427.738.726.726,0,0,1,.242.378.709.709,0,0,1,0,.369,5.279,5.279,0,0,1,2.942,2.918h.382a1.437,1.437,0,0,1,1.426,1.2l1.024,4.393c0,.019.007.037.011.056.03.21.059.381.081.518.079.474.148.891-.214,1.24l.012-.011A7.23,7.23,0,0,1,40.959,29.278ZM37.572,18.83l.773,5.118.561,0-1.014-5.108a.135.135,0,0,0-.05-.007h-.27Zm-.942-.011.775,5.131.439,0-.772-5.12h-.077a.629.629,0,0,1-.115-.01Zm-.5,0H35.95l.449,5.135h.5Zm-9.866-.73H36.274a3.96,3.96,0,0,0-2.5-2.363.663.663,0,0,1-.353-.268.865.865,0,0,1-.406-.593.728.728,0,0,1,.008-.241.739.739,0,0,1-.183-.44.719.719,0,0,1-.177-.165.731.731,0,0,1-.115-.214.736.736,0,0,1-.379-.29.744.744,0,0,1-.235-.055.72.72,0,0,1-.2-.124.818.818,0,0,1-.121.01.766.766,0,0,1-.125-.005.731.731,0,0,1-.219-.065.712.712,0,0,1-.218.064.764.764,0,0,1-.125.005.692.692,0,0,1-.121-.01.715.715,0,0,1-.2.124.73.73,0,0,1-.235.055.722.722,0,0,1-.166.177.738.738,0,0,1-.213.114.75.75,0,0,1-.291.38.725.725,0,0,1-.055.235.734.734,0,0,1-.127.2.728.728,0,0,1,.008.241.864.864,0,0,1-.406.593.656.656,0,0,1-.353.268A3.962,3.962,0,0,0,26.263,18.09Zm9.192.73H35.01l.449,5.136H35.9Zm-.94,0h-.379l.2,5.139h.622Zm-.873,0H33.2l.2,5.14h.447Zm-.941,0h-.2v5.141h.4Zm-1.14,0v5.143h.446V18.82Zm-.816,0-.2,5.145h.525V18.82Zm-.941,0-.2,5.146h.447l.2-5.145Zm-.873,0-.447,5.147h.623l.2-5.146Zm-.94,0-.447,5.148h.442l.45-5.147h-.445Zm-.674,0-.777,5.149h.506l.45-5.149ZM25.6,23.97h.439l.778-5.15h-.439Zm-.045-5.14-1.02,5.141H25.1l.777-5.15h-.219A.724.724,0,0,1,25.554,18.83ZM23.6,23.95c.125,0,.281.008.431.011L25.05,18.83h-.356a.1.1,0,0,0-.087.031Zm-1.066,1.125a1.351,1.351,0,0,1-.168-.13A1.4,1.4,0,0,0,22.532,25.075Zm.633.169.017,0Zm-.171-.02.027,0Zm-.239-.047.016,0Zm-.074-.024.01,0Zm-.065-.029.008,0Zm-.049-.027.011.006Zm16.555.166h.015c-.27.017-.63.027-1.124.027H25.184l.07,1.532.626-.3a.563.563,0,0,1,.777.331l.6,1.79A.563.563,0,1,1,26.183,29l-.4-1.185-.817.389a.563.563,0,0,1-.805-.483l-.11-2.435c-.272,0-.493-.013-.672-.024h.008a6.506,6.506,0,0,0-.7,3.907,7.4,7.4,0,0,0,1.045,2.713c.038.064.072.122.1.175a.563.563,0,0,1-.062.647,2.62,2.62,0,0,0-.3,3.083c.7.975,1.306.96,1.921.741l.031-.011c.14-.051.281-.112.423-.174l.2-.086a.564.564,0,1,1,.433,1.041c-.059.024-.119.051-.182.079l-.142.061c-.019.713-.029,1.623.007,1.925.031.254.051.364.136.448s.356.251,1.115.315h.342V38.036a.564.564,0,0,1,1.127,0v2.193a3.2,3.2,0,0,0,1.027.227h.769v-2.42a.564.564,0,0,1,1.127,0v2.42h.93a2.645,2.645,0,0,0,.721-.124v-2.3a.564.564,0,0,1,1.127,0v2.088h.648c.758-.063,1.024-.224,1.115-.315s.105-.194.135-.443c.04-.336.023-1.285.006-1.863-.109-.044-.21-.088-.3-.128l-.182-.078a.564.564,0,1,1,.433-1.041l.2.086c.776.338,1.507.657,2.374-.556a2.62,2.62,0,0,0-.3-3.084.568.568,0,0,1-.061-.646c.034-.059.074-.126.119-.2a7.5,7.5,0,0,0,1.075-2.744A6.189,6.189,0,0,0,39.124,25.263Zm.221-.016h0Zm.19-.022-.029,0Zm.127-.02h0Zm.116-.027-.016,0Zm.076-.024-.012,0Zm.065-.029-.008,0Zm.05-.027-.011.006ZM40,25.075a1.326,1.326,0,0,0,.171-.132A1.326,1.326,0,0,1,40,25.075Zm-8.669,7.437c-.727,0-1.235,1.908-1.316,2.641a1.315,1.315,0,1,0,2.631,0C32.569,34.419,32.061,32.511,31.335,32.511Z" transform="translate(-21.501 -11.723)" fill="#00c0aa"/>
</svg>
