<svg xmlns="http://www.w3.org/2000/svg" width="25" height="28.095" viewBox="0 0 25 28.095">
  <path id="Calavera" d="M19.607,21.19a1.218,1.218,0,0,1-.27,1.026,1.75,1.75,0,0,1-2.667.005,1.23,1.23,0,0,1-.277-1.029,21.762,21.762,0,0,1,1.259-3.112.356.356,0,0,1,.317-.2.351.351,0,0,1,.32.2A21.111,21.111,0,0,1,19.607,21.19Zm6.357-3.938A2.944,2.944,0,1,0,23.021,20.1,2.9,2.9,0,0,0,25.964,17.252Zm2.749.643a4.246,4.246,0,0,1,.868,3.7,3.568,3.568,0,0,1-2.017,2.639,4.2,4.2,0,0,1-2,.375c.014.122.029.247.043.358.168,1.359.378,3.051-.793,3.5a7.283,7.283,0,0,1-2.323.467,2.641,2.641,0,0,1-.777-.107,4.4,4.4,0,0,1-2.232.495,4.862,4.862,0,0,1-1.235-.142A2.022,2.022,0,0,1,18,29.093a3.929,3.929,0,0,1-1.491.23,5.573,5.573,0,0,1-1.663-.232,2.428,2.428,0,0,1-.561-.261,5.78,5.78,0,0,1-3.107-.362c-1.171-.454-.961-2.145-.793-3.5.014-.112.029-.237.043-.359a4.2,4.2,0,0,1-2-.375,3.567,3.567,0,0,1-2.017-2.639,4.245,4.245,0,0,1,.867-3.7C5.752,16.646,5.524,13.764,5.5,13.381A12.328,12.328,0,0,1,18,1.229a12.324,12.324,0,0,1,12.5,12.11C30.475,13.757,30.247,16.645,28.713,17.9ZM7.357,15.343c5.193-.074,15.519-3.025,20.139-7.48A11.258,11.258,0,0,0,10.7,5.316l.058,2.642.943-.474a.616.616,0,0,1,.87.384l.593,2.119a.616.616,0,1,1-1.187.332l-.392-1.4L10.438,9.5a.616.616,0,0,1-.893-.537L9.492,6.518a10.453,10.453,0,0,0-2.541,6.821A8.539,8.539,0,0,0,7.357,15.343ZM24.17,25.132a6.8,6.8,0,0,1-.087-1.211,4.068,4.068,0,0,1-.359-.253.616.616,0,1,1,.767-.965,2.514,2.514,0,0,0,.843.438,2.755,2.755,0,0,0,1.616-.185,2.187,2.187,0,0,0,1.206-1.637,2.873,2.873,0,0,0-1.068-3.008.7.7,0,0,1-.307-.716.713.713,0,0,1,.553-.556c1.131-.243,1.644-2.626,1.715-3.743a10.264,10.264,0,0,0-.864-4.123c-3.031,2.738-7.918,4.879-12.525,6.178v2.42a2.944,2.944,0,0,1-5.886,0v-1.2c-.583.072-1.134.121-1.654.15a1.131,1.131,0,0,0,.545.316.714.714,0,0,1,.557.56.694.694,0,0,1-.316.715,2.873,2.873,0,0,0-1.063,3,2.188,2.188,0,0,0,1.206,1.637,2.755,2.755,0,0,0,1.616.185,2.669,2.669,0,0,0,.872-.438.616.616,0,0,1,.767.965,4.2,4.2,0,0,1-.388.271,6.981,6.981,0,0,1-.088,1.193,6.3,6.3,0,0,0-.049,2.053,5.24,5.24,0,0,0,1.887.34V25.184a.727.727,0,0,1,1.453,0v2.5a4.292,4.292,0,0,0,2.151.171l0-2.412h0v-.081a.726.726,0,0,1,1.452,0v.084h.007l0,2.409a4.3,4.3,0,0,0,2.15-.171v-2.5a.726.726,0,0,1,1.452,0v2.342a5.271,5.271,0,0,0,1.887-.34A6.283,6.283,0,0,0,24.17,25.132Z" transform="translate(-5.5 -1.229)" fill="#f65058"/>
</svg>
