<svg xmlns="http://www.w3.org/2000/svg" width="24.09" height="29.125" viewBox="0 0 24.09 29.125">
  <path id="Calavera-Gorra" d="M19.066,15.556h.111C19.14,15.593,19.1,15.556,19.066,15.556Zm0,0h.111C19.14,15.593,19.1,15.556,19.066,15.556Zm2.958-4.068a6.68,6.68,0,0,0,1-3.772l-.037-1.479h0s-.037-4.918-.037-7.507c0-1.405-1.405-3.55-3-4.586A9.559,9.559,0,0,0,17.808-6.89a6.735,6.735,0,0,0-.924-.259.222.222,0,0,0,.037-.148c.037-.481-.592-.924-1.368-1s-1.442.3-1.479.777h0a10.268,10.268,0,0,0-4.215.887C6.9-5.3,5.532-3.452,5.457-.6V.1a8,8,0,0,1-.185,2.108,2.209,2.209,0,0,1-1.59,1.7,1.986,1.986,0,0,1-.7-.185H2.943c-.074-.037-.185-.074-.259-.111-.185-.111-.37-.185-.518-.259a2.362,2.362,0,0,0-3,1.072A2.457,2.457,0,0,0,.133,7.568,5.478,5.478,0,0,0,3.2,8.456a4.7,4.7,0,0,0,.74-.037,6.105,6.105,0,0,0,1,3.106,2.945,2.945,0,0,0-.592,1.368,3.3,3.3,0,0,0,.666,2.663,3.425,3.425,0,0,0,2.4,1.183v1.59a2.036,2.036,0,0,0,1.627,1.96A4.811,4.811,0,0,0,10.6,20.4a4.824,4.824,0,0,0,2.884.333h0a4.375,4.375,0,0,0,.961.074,5.133,5.133,0,0,0,1.923-.407,4.811,4.811,0,0,0,1.553-.111,2.036,2.036,0,0,0,1.627-1.96v-1.59a3.333,3.333,0,0,0,2.33-1.183,3.262,3.262,0,0,0,.665-2.663A2.605,2.605,0,0,0,22.024,11.488ZM19.362-4.931A5.767,5.767,0,0,1,21.839-1.27c0,2.33.037,5.806.037,7.137a8.587,8.587,0,0,1-3.032-.924,20.246,20.246,0,0,0-.259-10.354A8.831,8.831,0,0,0,19.362-4.931ZM6.567-.567c.074-2.4,1.183-3.883,3.7-5.029a10.1,10.1,0,0,1,6.915-.333,18.525,18.525,0,0,1,.591,10.354c-.148-.074-.259-.148-.407-.222C14.813,2.761,11.633.986,7.048.986H6.567V-.567ZM6.382,2.5c.037-.148.074-.3.111-.407h.665c4.29,0,7.211,1.627,9.763,3.069.148.074.3.185.444.259a6.278,6.278,0,0,1-5.4,2.588A14.369,14.369,0,0,1,4.348,4.869,3.611,3.611,0,0,0,6.382,2.5ZM4.422,7.162H4.311A4.589,4.589,0,0,1,.761,6.57a1.316,1.316,0,0,1-.591-1.7A1.231,1.231,0,0,1,1.8,4.351l.37.185.222.111A14.909,14.909,0,0,0,5.273,6.866,2.553,2.553,0,0,1,4.422,7.162Zm16.456,3.92a.587.587,0,0,0-.185.37.557.557,0,0,0,.148.407l.185.185a1.841,1.841,0,0,1,.481,1,2.135,2.135,0,0,1-.444,1.738,2.225,2.225,0,0,1-1.886.777h-.148a2.856,2.856,0,0,1-.961-.259.563.563,0,0,0-.444,1.036,8.38,8.38,0,0,0,.888.3v1.664a.919.919,0,0,1-.74.887,4.132,4.132,0,0,1-.813.111V17.035a.555.555,0,0,0-1.109,0v2.4a3.693,3.693,0,0,1-1.738.222V17.035a.555.555,0,0,0-1.109,0V19.66a3.693,3.693,0,0,1-1.738-.222v-2.4a.555.555,0,0,0-1.109,0v2.256a3.812,3.812,0,0,1-.813-.111.919.919,0,0,1-.74-.887v-1.7a5.226,5.226,0,0,0,.813-.259A.563.563,0,1,0,8.971,15.3a2.9,2.9,0,0,1-.924.259H7.935a2.326,2.326,0,0,1-1.96-.777,2.323,2.323,0,0,1-.444-1.738,1.839,1.839,0,0,1,.481-1l.185-.185a.556.556,0,0,0,.148-.407.455.455,0,0,0-.185-.37A4.591,4.591,0,0,1,5.125,8.123a5.88,5.88,0,0,0,1.368-.592,14.959,14.959,0,0,0,5.4,1.59,3.583,3.583,0,0,0,.629.037A7.642,7.642,0,0,0,18.4,5.941a9.45,9.45,0,0,0,3.587,1.036v.74C21.95,8.345,21.8,10.231,20.878,11.081ZM14.776,1.5a.556.556,0,0,1-.518-.37l-.813-2.182-1.368.628a.47.47,0,0,1-.444,0,.508.508,0,0,1-.3-.37l-.961-3.328a.586.586,0,0,1,.37-.7.585.585,0,0,1,.7.37l.777,2.736,1.294-.592a.473.473,0,0,1,.444,0,.525.525,0,0,1,.3.333L15.294.764a.535.535,0,0,1-.333.7A.4.4,0,0,1,14.776,1.5ZM13.519,11.747c.666,0,1.22,1.849,1.22,2.515a1.22,1.22,0,0,1-2.441,0C12.3,13.559,12.853,11.747,13.519,11.747Zm3.809-2.514A2.071,2.071,0,1,1,15.257,11.3,2.067,2.067,0,0,1,17.328,9.232Zm-7.618,0A2.071,2.071,0,1,1,7.639,11.3,2.044,2.044,0,0,1,9.71,9.232Z" transform="translate(1.064 8.306)" fill="#f79b2f"/>
</svg>
