<svg xmlns="http://www.w3.org/2000/svg" width="50.035" height="50" viewBox="0 0 50.035 50">
  <path id="ico-Telefono" d="M38.41,50c7.333.26,13.242-7.355,11.227-14.374-.319-1.07-.607-2.611-1.917-2.815L31.447,30.253a1.67,1.67,0,0,0-1.492.525,11.28,11.28,0,0,0-2,3.058A24.58,24.58,0,0,1,16.175,22.053c1.326-.757,3.709-1.621,3.584-3.49L17.2,2.294C17,1,15.448.694,14.412.383A11.5,11.5,0,0,0,.009,11.52C-.46,32.21,17.723,50.431,38.41,50ZM5.732,5.737a8.157,8.157,0,0,1,8.318-2l2.267,14.4c-1.263,1.259-4.667,1-3.926,3.495A27.75,27.75,0,0,0,28.375,37.62a1.681,1.681,0,0,0,2.2-1.165,7.727,7.727,0,0,1,1.292-2.763l14.4,2.269a8.225,8.225,0,0,1-7.856,10.709A34.836,34.836,0,0,1,13.608,36.4,34.844,34.844,0,0,1,3.341,11.524,8.133,8.133,0,0,1,5.732,5.737Z" transform="translate(0 -0.012)" fill="#fff"/>
</svg>
