<svg xmlns="http://www.w3.org/2000/svg" width="17.753" height="18" viewBox="0 0 17.753 18"><defs><style>.a{fill:#f65058;}</style></defs><path class="a" d="M23.567,20.811a1.449,1.449,0,0,0-.5-.6l-2.025-1.265a2.033,2.033,0,0,0-1.067-.35,1.413,1.413,0,0,0-.337.041.3.3,0,0,0-.094-.006,1.759,1.759,0,0,1-.336-.619.306.306,0,0,0-.4-.187,1.174,1.174,0,0,0-.673.63,1.376,1.376,0,0,0-.1.589,7.838,7.838,0,0,0-.778-.348c.017-.257.013-.689.006-1.03l.064,0a1.768,1.768,0,0,0,1.457-.884,2.162,2.162,0,0,0,.267-2.047,3.114,3.114,0,0,0-.344-.688,5.5,5.5,0,0,0,.756-2,5.016,5.016,0,0,0-.891-3.571A6.219,6.219,0,0,0,12.952,5.47h0A6.23,6.23,0,0,0,7.51,8.492a5.247,5.247,0,0,0-.855,3.6,5.421,5.421,0,0,0,.726,1.959,3.132,3.132,0,0,0-.345.688A2.162,2.162,0,0,0,7.3,16.786a1.715,1.715,0,0,0,1.628.874c-.008.394-.012.916.016,1.146v.01a6.474,6.474,0,0,0-2.942,2.163.35.35,0,0,0,.573.4,5.825,5.825,0,0,1,2.616-1.9,1.752,1.752,0,0,0,1.272.484h.7a2.856,2.856,0,0,0,1,.219h1.866a2.856,2.856,0,0,0,1-.219h.127a2.165,2.165,0,0,1,.075.272,1.1,1.1,0,0,0-.35-.061.871.871,0,0,0-.782.5,1.432,1.432,0,0,0,.087,1.364,1.1,1.1,0,0,1,.129.963.307.307,0,0,0,.283.424.318.318,0,0,0,.064-.007A3.3,3.3,0,0,0,16.476,22.1a1.12,1.12,0,0,0,.134-1.215,1.186,1.186,0,0,0-.758-.6,2.852,2.852,0,0,0-.066-.327c.749-.071,1.1-.3,1.279-.579a7.031,7.031,0,0,1,.641.291,1.315,1.315,0,0,0-.355.285,1.174,1.174,0,0,0-.27.881.307.307,0,0,0,.339.281,2.978,2.978,0,0,1,.887.019,1.979,1.979,0,0,0,.816.879l2.025,1.265a1.446,1.446,0,0,0,.722.191h0a1.721,1.721,0,0,0,1.467-.954A1.737,1.737,0,0,0,23.567,20.811ZM9.681,17.444l.094-.041.12-.052a.372.372,0,0,0-.286-.687l-.132.057c-.094.041-.186.081-.279.115l-.02.007c-.406.145-.809.155-1.269-.49a1.73,1.73,0,0,1,.2-2.037.372.372,0,0,0,.041-.428l-.067-.115a4.886,4.886,0,0,1-.69-1.792,4.526,4.526,0,0,1,.751-3.1q.172-.276.356-.516l.051,1.124a.372.372,0,0,0,.532.319l.54-.257.261.783a.372.372,0,0,0,.706-.235l-.395-1.182A.372.372,0,0,0,9.68,8.7l-.413.2L9.207,7.594a5.469,5.469,0,0,1,3.741-1.379h0a6.19,6.19,0,0,1,2.442.441,5.8,5.8,0,0,1,2.55,2.238,4.3,4.3,0,0,1,.776,3.05,4.955,4.955,0,0,1-.71,1.812l-.079.134a.374.374,0,0,0,.04.427,1.731,1.731,0,0,1,.2,2.038c-.383.536-.725.619-1.063.549a2.438,2.438,0,0,1-.272-.084c-.077-.03-.154-.064-.232-.1l-.132-.057a.372.372,0,1,0-.286.687l.12.052c.062.027.129.056.2.085.008.323.013.7.008.962a10.487,10.487,0,0,0-1.267-.282V17.84a.372.372,0,1,0-.744,0v.234c-.358-.034-.722-.053-1.09-.055V17.84a.372.372,0,1,0-.744,0v.2c-.321.017-.643.045-.965.086l-.222.03V17.84a.372.372,0,1,0-.744,0v.443q-.551.115-1.062.275C9.665,18.288,9.671,17.823,9.681,17.444Zm.831,1.775a2.748,2.748,0,0,1-.4-.059q.3-.088.622-.16v.218Zm1.649.219a2.124,2.124,0,0,1-.679-.15v-.427c.1-.016.206-.031.31-.044q.439-.056.876-.08v.7H12.16Zm1.866,0h-.614v-.719c.252,0,.5.01.747.027a2.983,2.983,0,0,1,.343.264v.346A1.737,1.737,0,0,1,14.027,19.438Zm1.845,1.511a.577.577,0,0,1,.194.213.534.534,0,0,1-.089.578,2.955,2.955,0,0,1-.992.889,2.293,2.293,0,0,0-.247-.841c-.164-.365-.243-.568-.106-.824.084-.156.169-.177.242-.177a.75.75,0,0,1,.374.141l.013.009a2.209,2.209,0,0,1-.1.513.306.306,0,0,0,.575.213A2.83,2.83,0,0,0,15.872,20.949Zm-.2-1.73h-.2a2.856,2.856,0,0,0-.224-.316v-.027a9.725,9.725,0,0,1,1.01.227A2.041,2.041,0,0,1,15.676,19.219ZM18.2,20.5c-.082-.008-.153-.011-.2-.013-.092,0-.182,0-.266,0a.5.5,0,0,1,.079-.126.942.942,0,0,1,.464-.259A1.733,1.733,0,0,0,18.2,20.5Zm.485-1.175a1.025,1.025,0,0,1,.007-.624.5.5,0,0,1,.079-.127c.022.045.046.092.071.138a1.758,1.758,0,0,0,.171.257A2.233,2.233,0,0,0,18.686,19.32Zm.264.968a1.83,1.83,0,0,1,.192-.394,1.019,1.019,0,0,1,.829-.6,1.342,1.342,0,0,1,.682.235,1.689,1.689,0,0,0-.322.02A2.176,2.176,0,0,0,18.95,20.288Zm1.327,1.62-.783-.489a1.937,1.937,0,0,1-.3-.23c.013-.108.142-.845,1.243-1.031a1.9,1.9,0,0,1,.751.076,2.964,2.964,0,0,0-.5.621A2.488,2.488,0,0,0,20.277,21.909Zm1.592.86a.775.775,0,0,1-.354-.087l-.569-.356c-.1-.186-.114-.555.255-1.145a2.907,2.907,0,0,1,.186-.265,2.1,2.1,0,0,0,.056,1.138,1.456,1.456,0,0,0,.473.712Zm.4-.508a.826.826,0,0,1-.237-.379,1.946,1.946,0,0,1-.081-.445.261.261,0,0,1,.21.09A1.139,1.139,0,0,1,22.27,22.26Zm.621-.4a1.292,1.292,0,0,0-.256-.727.857.857,0,0,0-.552-.3.817.817,0,0,1,.242-.256l.364.228A.794.794,0,0,1,22.891,21.864Zm-10.7-5.929c.053-.484.389-1.745.869-1.745s.816,1.26.869,1.745a.869.869,0,0,1-1.738,0ZM14.131,13.9a1.533,1.533,0,1,1,1.533,1.533A1.533,1.533,0,0,1,14.131,13.9Zm-3.766,1.533A1.533,1.533,0,1,1,11.9,13.9,1.533,1.533,0,0,1,10.365,15.431Z" transform="translate(-5.943 -5.47)"/></svg>