<svg xmlns="http://www.w3.org/2000/svg" width="13.142" height="23" viewBox="0 0 13.142 23">
  <g id="ico-Interrogacion" transform="translate(-5.429 -0.5)">
    <path id="Trazado_131" data-name="Trazado 131" d="M12,.5A6.569,6.569,0,0,0,5.429,7.071H8.714a3.286,3.286,0,0,1,6.572,0,3.214,3.214,0,0,1-.97,2.317l-2.037,2.07a6.611,6.611,0,0,0-1.922,4.649v.822h3.286a5.594,5.594,0,0,1,1.922-4.65l1.479-1.511a5.231,5.231,0,0,0,1.527-3.7A6.569,6.569,0,0,0,12,.5Z" fill="#fff"/>
    <rect id="Rectángulo_16" data-name="Rectángulo 16" width="3.286" height="3.286" transform="translate(10.357 20.214)" fill="#fff"/>
  </g>
</svg>
