<svg xmlns="http://www.w3.org/2000/svg" width="30" height="23.078" viewBox="0 0 30 23.078">
  <path id="ico-Birrete" d="M49.693,550.336V543.2a1.153,1.153,0,0,0-.6-1.013L36.4,535.264a1.16,1.16,0,0,0-1.106,0L22.6,542.188a1.154,1.154,0,0,0,0,2.026l5.169,2.819v6.553a1.155,1.155,0,0,0,.769,1.088,21.964,21.964,0,0,0,6.089,1.217q.61.035,1.218.034a22.018,22.018,0,0,0,7.3-1.251,1.154,1.154,0,0,0,.772-1.088v-6.553l3.462-1.888v5.193a3.456,3.456,0,0,0-2.308,3.249v3.462A1.153,1.153,0,0,0,46.23,558.2h4.616A1.153,1.153,0,0,0,52,557.048v-3.462A3.454,3.454,0,0,0,49.693,550.336Zm-8.077-2.045v4.458a19.84,19.84,0,0,1-6.859.839,19.633,19.633,0,0,1-4.68-.838v-4.459l5.217,2.846a1.157,1.157,0,0,0,1.106,0Zm-5.769.518L25.563,543.2l10.283-5.609L46.13,543.2Zm13.847,7.084H47.385v-2.307a1.154,1.154,0,1,1,2.308,0Z" transform="translate(-21.999 -535.124)" fill="#fff"/>
</svg>
