<svg xmlns="http://www.w3.org/2000/svg" width="76" height="100" viewBox="0 0 76 100">
  <g id="Logo" transform="translate(0)">
    <path id="Trazado_1" data-name="Trazado 1" d="M190.477,781.668s7.228,0,7.228-7.219V688.887s0-7.219-7.228-7.219H154.219s-7.228,0-7.228,7.219v27.749s0,6.7-6.707,6.7H128.934s-7.228,0-7.228,7.219v43.9s0,7.219,7.228,7.219h61.543Z" transform="translate(-121.706 -681.668)" fill="#fff"/>
    <path id="Trazado_2" data-name="Trazado 2" d="M165.941,749.188v10.783a1.372,1.372,0,1,0,2.742,0V749.188a1.372,1.372,0,1,0-2.742,0m-14.6,7.43c0-1.265.668-2.319,1.882-2.319s1.884,1.054,1.884,2.319-.67,2.319-1.884,2.319-1.882-1.054-1.882-2.319m-2.742,0a4.635,4.635,0,1,0,4.624-4.952,4.642,4.642,0,0,0-4.624,4.952m-14.741-7.939a1.368,1.368,0,0,0-1.426,1.389,6.873,6.873,0,0,0,.283,1.458l1.9,7.744c.334,1.369.634,2.124,2.006,2.124a1.955,1.955,0,0,0,2.023-1.562l1.828-5.727h.035l1.83,5.727a1.954,1.954,0,0,0,2.022,1.562c1.372,0,1.67-.756,2-2.124l1.9-7.744a6.873,6.873,0,0,0,.283-1.458,1.369,1.369,0,0,0-1.426-1.389,1.407,1.407,0,0,0-1.476,1.265l-1.459,6.743h-.035l-2.059-6.551c-.351-1.089-.843-1.458-1.6-1.458s-1.248.369-1.6,1.458l-2.059,6.551H136.8l-1.459-6.743a1.409,1.409,0,0,0-1.476-1.265m10.339-7.77v-9.695a1.426,1.426,0,1,0-2.847,0v3.361h-5.314v-3.361a1.426,1.426,0,1,0-2.847,0v9.695a1.426,1.426,0,1,0,2.847,0v-3.7h5.314v3.7a1.426,1.426,0,1,0,2.847,0m7.635-4.243h-3.555a1.782,1.782,0,0,1,3.555,0m2.742.684a4.5,4.5,0,0,0-4.448-4.654,4.836,4.836,0,0,0-4.8,4.952,4.682,4.682,0,0,0,4.8,4.953c2.075,0,4.307-.877,4.307-2.212a1.138,1.138,0,0,0-1.143-1.178c-.632,0-1.458.862-2.813.862-1.76,0-2.2-.949-2.2-1.53h4.961c.88,0,1.337-.228,1.337-1.193M158.339,741V730.219a1.371,1.371,0,1,0-2.741,0V741a1.371,1.371,0,1,0,2.741,0m1.956,10.839a1.362,1.362,0,0,0-1.37,1.423v6.709a1.371,1.371,0,1,0,2.741,0v-3.338c0-1.4.386-1.72,1.583-2.07,1-.3,1.724-.527,1.724-1.476a1.413,1.413,0,0,0-1.408-1.423,2.616,2.616,0,0,0-1.9,1.053,1.479,1.479,0,0,0-1.37-.877M162.419,741V730.219a1.371,1.371,0,1,0-2.741,0V741a1.371,1.371,0,1,0,2.741,0m7.529-3.355c0,1.266-.669,2.32-1.883,2.32s-1.883-1.054-1.883-2.32.669-2.319,1.883-2.319,1.883,1.054,1.883,2.319m2.741,0a4.635,4.635,0,1,0-4.624,4.953,4.643,4.643,0,0,0,4.624-4.953m3.524,18.971c0,1.266-.669,2.319-1.883,2.319s-1.883-1.053-1.883-2.318.669-2.32,1.883-2.32,1.883,1.054,1.883,2.319m2.742,3.355V749.188a1.372,1.372,0,1,0-2.742,0v3.248a3.224,3.224,0,0,0-2.271-.77c-2.391,0-4.235,2.193-4.235,4.952s1.845,4.952,4.235,4.952a2.736,2.736,0,0,0,2.357-1.053,1.423,1.423,0,0,0,1.285.877,1.362,1.362,0,0,0,1.372-1.422m2.922.071a1.529,1.529,0,1,0,1.527-1.527,1.54,1.54,0,0,0-1.527,1.527m2.9-3.831V750.05a1.38,1.38,0,1,0-2.741,0v6.163a1.38,1.38,0,1,0,2.741,0" transform="translate(-120.353 -675.793)" fill="#ff5b34"/>
    <path id="Trazado_3" data-name="Trazado 3" d="M178.909,714.222V698.231a1.785,1.785,0,0,0-3.571,0v12.425h-15.82l4.04-4.035h0a1.783,1.783,0,1,0-2.522-2.52h0l-8.385,8.373h0l0,0,8.383,8.372h0a1.783,1.783,0,1,0,2.522-2.519h0l-4.108-4.1h15.888v0h3.571Z" transform="translate(-117.804 -679.826)" fill="#ff5b34"/>
  </g>
</svg>
