<svg xmlns="http://www.w3.org/2000/svg" width="434.361" height="572.23" viewBox="0 0 434.361 572.23">
  <g id="Logo" transform="translate(0 0)">
    <path id="Trazado_114" data-name="Trazado 114" d="M636.921,1044.03s41.312,0,41.312-41.31V513.109s0-41.309-41.312-41.309H429.695s-41.312,0-41.312,41.309V668.919s0,41.31-41.312,41.31H285.184s-41.312,0-41.312,41.309v251.183s0,41.31,41.312,41.31H636.921Z" transform="translate(-243.872 -471.8)"/>
    <path id="Trazado_115" data-name="Trazado 115" d="M450.689,655.764v61.707a7.84,7.84,0,1,0,15.669,0V655.764a7.84,7.84,0,1,0-15.669,0m-83.445,42.513c0-7.241,3.824-13.274,10.763-13.274s10.763,6.033,10.763,13.274-3.824,13.274-10.763,13.274-10.763-6.033-10.763-13.274m-15.669,0c0,15.785,10.547,28.338,26.432,28.338s26.432-12.553,26.432-28.338-10.547-28.338-26.432-28.338-26.432,12.553-26.432,28.338m-84.251-45.426a7.816,7.816,0,0,0-8.139,7.94c0,2.71,1.1,6.226,1.605,8.336l10.858,44.321c1.907,7.836,3.616,12.16,11.457,12.16,6.232,0,9.645-3.116,11.557-8.946l10.452-32.76h.2l10.452,32.76c1.907,5.83,5.325,8.946,11.557,8.946,7.841,0,9.546-4.324,11.458-12.16l10.853-44.321c.5-2.11,1.61-5.627,1.61-8.336a7.817,7.817,0,0,0-8.143-7.94c-5.325,0-7.534,3.215-8.441,7.232l-8.342,38.59h-.2l-11.76-37.481c-2.011-6.231-4.825-8.341-9.149-8.341s-7.133,2.11-9.144,8.341l-11.76,37.481h-.2l-8.342-38.59c-.9-4.017-3.116-7.232-8.441-7.232m59.1-44.47V552.91c0-5.708-3.418-8.612-8.139-8.612s-8.134,2.9-8.134,8.612v19.23H279.778V552.91c0-5.708-3.418-8.612-8.139-8.612s-8.134,2.9-8.134,8.612v55.471c0,5.749,3.418,8.675,8.134,8.675s8.139-2.926,8.139-8.675V587.2h30.368v21.178c0,5.749,3.413,8.675,8.134,8.675s8.139-2.926,8.139-8.675M370.054,584.1H349.736c0-3.521,4.027-9.46,10.159-9.46s10.159,5.938,10.159,9.46m15.669,3.918c0-13.68-9.942-26.633-25.422-26.633-16.088,0-27.437,13.256-27.437,28.338,0,15.785,10.547,28.342,27.437,28.342,11.863,0,24.62-5.023,24.62-12.656a6.507,6.507,0,0,0-6.529-6.741c-3.616,0-8.337,4.932-16.079,4.932-10.06,0-12.576-5.433-12.576-8.756h28.353c5.023,0,7.634-1.3,7.634-6.826m21.513,20.9v-61.7a7.84,7.84,0,1,0-15.669,0v61.7a7.84,7.84,0,1,0,15.669,0m11.182,62.027a7.8,7.8,0,0,0-7.837,8.143v38.387a7.84,7.84,0,1,0,15.669,0V698.376c0-8.039,2.214-9.847,9.045-11.858,5.731-1.7,9.852-3.012,9.852-8.441a8.076,8.076,0,0,0-8.04-8.138c-4.424,0-8.243,2.913-10.858,6.029a8.445,8.445,0,0,0-7.832-5.028m12.138-62.027v-61.7a7.84,7.84,0,1,0-15.669,0v61.7a7.84,7.84,0,1,0,15.669,0m43.03-19.194c0,7.241-3.819,13.274-10.759,13.274s-10.763-6.032-10.763-13.274,3.819-13.274,10.763-13.274,10.759,6.038,10.759,13.274m15.669,0c0-15.781-10.547-28.338-26.428-28.338S436.4,573.939,436.4,589.72s10.547,28.342,26.432,28.342,26.428-12.557,26.428-28.342m20.133,108.558c0,7.241-3.819,13.274-10.759,13.274s-10.763-6.033-10.763-13.269S491.69,685,498.629,685s10.759,6.033,10.759,13.274m15.669,19.2V655.764a7.84,7.84,0,1,0-15.669,0v18.585c-2.823-2.3-6.245-4.41-12.977-4.41-13.667,0-24.214,12.553-24.214,28.338s10.547,28.338,24.214,28.338c5.93,0,9.952-1.709,13.469-6.028a8.133,8.133,0,0,0,7.345,5.023,7.788,7.788,0,0,0,7.832-8.134m16.7.4a8.741,8.741,0,1,0,8.743-8.738,8.815,8.815,0,0,0-8.743,8.738m16.575-21.917V660.687c0-4.72-2.814-8.842-7.832-8.842s-7.837,4.121-7.837,8.842V695.96c0,4.725,2.814,8.842,7.837,8.842s7.832-4.117,7.832-8.842" transform="translate(-190.138 -235.772)" fill="#fff"/>
    <path id="Trazado_116" data-name="Trazado 116" d="M438.125,594.613V503.1a10.206,10.206,0,0,0-20.413,0v71.1H327.3l23.1-23.094-.009,0a10.2,10.2,0,1,0-14.42-14.419l-.009-.009L288.046,584.59l0,0-.014.014,47.918,47.914,0-.009a10.2,10.2,0,1,0,14.424-14.419l0-.009-23.479-23.473h90.8v.013h20.413Z" transform="translate(-88.895 -397.782)" fill="#fff"/>
  </g>
</svg>
