<svg xmlns="http://www.w3.org/2000/svg" xmlns:xlink="http://www.w3.org/1999/xlink" width="152.926" height="170.631" viewBox="0 0 152.926 170.631">
  <defs>
    <filter id="Escudo" x="0" y="0" width="152.926" height="170.631" filterUnits="userSpaceOnUse">
      <feOffset dy="5" input="SourceAlpha"/>
      <feGaussianBlur stdDeviation="10" result="blur"/>
      <feFlood flood-opacity="0.161"/>
      <feComposite operator="in" in2="blur"/>
      <feComposite in="SourceGraphic"/>
    </filter>
  </defs>
  <g id="Escudo-2" data-name="Escudo" transform="translate(35 30.301)">
    <g transform="matrix(1, 0, 0, 1, -35, -30.3)" filter="url(#Escudo)">
      <g id="Escudo-3" data-name="Escudo" transform="translate(19 21.3)" fill="#f8f8f8">
        <path d="M 57.46343612670898 111.6651611328125 L 56.59698867797852 111.3450164794922 C 47.36740493774414 107.9349136352539 39.33945083618164 102.7332534790039 32.73611450195312 95.88455963134766 C 26.64011383056641 89.56201934814453 21.87458992004395 81.97422027587891 18.57191276550293 73.3319091796875 C 17.01714324951172 69.26345062255859 15.79974365234375 64.97193908691406 14.9535436630249 60.57657241821289 C 14.12752819061279 56.28607940673828 13.6484203338623 51.86312866210938 13.52952861785889 47.43057250976562 C 13.41219043731689 43.05592727661133 13.64485168457031 38.64641952514648 14.22102069854736 34.32452774047852 C 14.79675960540771 30.00597381591797 15.71832847595215 25.75335693359375 16.96015930175781 21.6848201751709 L 17.32909774780273 20.47604942321777 L 18.52122116088867 20.05644989013672 L 56.63340377807617 6.641819477081299 L 57.46345138549805 6.349665641784668 L 58.29348373413086 6.641819477081299 L 96.40444946289062 20.05644989013672 L 97.59651184082031 20.47604942321777 L 97.96548461914062 21.68472671508789 C 99.20745086669922 25.75326538085938 100.1291732788086 30.00588035583496 100.7050170898438 34.32446670532227 C 101.2813262939453 38.64634323120117 101.5140838623047 43.05586624145508 101.3968353271484 47.43052673339844 C 101.2780380249023 51.86307907104492 100.7990036010742 56.28603363037109 99.97305297851562 60.57654190063477 C 99.12689971923828 64.97190856933594 97.90956115722656 69.26342010498047 96.35482025146484 73.33189392089844 C 93.05223846435547 81.97418975830078 88.2867431640625 89.56200408935547 82.19074249267578 95.88455963134766 C 75.58743286132812 102.7332534790039 67.55947875976562 107.9349136352539 58.32988357543945 111.3450317382812 L 57.46343612670898 111.6651611328125 Z" stroke="none"/>
        <path d="M 57.46343612670898 9.000007629394531 L 19.35125732421875 22.41462707519531 C 9.697601318359375 54.04267883300781 20.45003509521484 95.32437133789062 57.46343612670898 108.9999694824219 C 94.47683715820312 95.32437133789062 105.2292709350586 54.04267883300781 95.57440185546875 22.41462707519531 L 57.46343612670898 9.000007629394531 M 57.46345520019531 3.699317932128906 L 99.61862182617188 18.53744506835938 L 100.3565444946289 20.95480346679688 C 101.6382522583008 25.15351867675781 102.5892333984375 29.54053497314453 103.1830902099609 33.99402618408203 C 103.7768936157227 38.44720458984375 104.0167236328125 42.99042510986328 103.8959274291992 47.49749755859375 C 103.7734909057617 52.06582641601562 103.2796020507812 56.625244140625 102.4279632568359 61.04913330078125 C 101.554328918457 65.58726501464844 100.296745300293 70.02001953125 98.69010925292969 74.22429656982422 C 95.26681518554688 83.18244171142578 90.32114410400391 91.05382537841797 83.99045562744141 97.61976623535156 C 77.123779296875 104.7416229248047 68.78183746337891 110.1484451293945 59.19632720947266 113.6900787353516 L 57.46343612670898 114.3303375244141 L 55.73054504394531 113.6900787353516 C 46.14505767822266 110.1484603881836 37.80309295654297 104.7416229248047 30.93641662597656 97.61976623535156 C 24.60572814941406 91.05384063720703 19.65999603271484 83.18247985839844 16.23663330078125 74.22433471679688 C 14.62996673583984 70.02008056640625 13.37230682373047 65.58731079101562 12.49863433837891 61.0492057800293 C 11.64694213867188 56.62533569335938 11.15296173095703 52.06591796875 11.03043365478516 47.49760437011719 C 10.9095458984375 42.99055480957031 11.14926910400391 38.44733428955078 11.74294281005859 33.99415588378906 C 12.336669921875 29.54069519042969 13.28750610351562 25.15367889404297 14.56905364990234 20.95498657226562 L 15.30694580078125 18.53744506835938 L 57.46345520019531 3.699317932128906 Z" stroke="none" fill="#fff"/>
      </g>
    </g>
    <path id="Calavera-Gorro" d="M36.8,50.26a4.395,4.395,0,1,1-4.4-4.395A4.4,4.4,0,0,1,36.8,50.26Zm10.8-4.394a4.394,4.394,0,1,0,4.394,4.4A4.4,4.4,0,0,0,47.6,45.866Zm10.757-.894A15.779,15.779,0,0,1,56.186,50.7a8.9,8.9,0,0,1,.987,1.971,6.2,6.2,0,0,1-.767,5.869c-1.4,1.965-2.874,2.533-4.178,2.533-.062,0-.124,0-.187,0A31.663,31.663,0,0,1,52,64.324c-.173,1.457-.667,3.028-4.359,3.323l-.084,0H45.641a8.192,8.192,0,0,1-2.854.628H37.435a8.186,8.186,0,0,1-2.854-.628H32.664l-.085,0c-3.691-.3-4.185-1.866-4.357-3.315a32.816,32.816,0,0,1-.045-3.285c-1.418.148-3.086-.293-4.668-2.508a6.2,6.2,0,0,1-.767-5.869A8.943,8.943,0,0,1,23.73,50.7a15.581,15.581,0,0,1-2.082-5.617,14.3,14.3,0,0,1,1.394-8.4c.012.012.027.024.039.035-.677-.659-.549-1.447-.4-2.341.043-.26.1-.584.154-.981,0-.036.012-.072.02-.107L24.8,24.961a2.722,2.722,0,0,1,2.7-2.275h.724a10,10,0,0,1,5.573-5.527,1.365,1.365,0,0,1,.005-.7,1.379,1.379,0,0,1,.459-.716,1.391,1.391,0,0,1,.809-1.4,1.368,1.368,0,0,1,.388-.753,1.394,1.394,0,0,1,.753-.389,1.378,1.378,0,0,1,.57-.627,1.415,1.415,0,0,1,.7-.186l.027,0h.028c.025,0,.049,0,.073,0a1.38,1.38,0,0,1,1.069-.5l.023,0h.032a1.371,1.371,0,0,1,.454.076,1.369,1.369,0,0,1,.79-.246l.028,0,.027,0a1.369,1.369,0,0,1,.79.246,1.4,1.4,0,0,1,.454-.076h.032l.023,0a1.425,1.425,0,0,1,.356.046,1.377,1.377,0,0,1,.713.458c.024,0,.048,0,.073,0H42.5l.027,0a1.415,1.415,0,0,1,.7.186,1.378,1.378,0,0,1,.57.627,1.4,1.4,0,0,1,.753.389,1.368,1.368,0,0,1,.388.753,1.391,1.391,0,0,1,.809,1.4,1.375,1.375,0,0,1,.459.716,1.343,1.343,0,0,1,.005.7,10,10,0,0,1,5.573,5.527h.724a2.722,2.722,0,0,1,2.7,2.275l1.939,8.321c.008.036.014.071.02.107.056.4.111.721.154.981.15.9.281,1.687-.406,2.349l.022-.02A13.693,13.693,0,0,1,58.354,44.972ZM51.94,25.184,53.4,34.877l1.063-.006L52.547,25.2a.255.255,0,0,0-.1-.013H51.94Zm-1.784-.02,1.467,9.719.831,0-1.463-9.7h-.145a1.192,1.192,0,0,1-.217-.019Zm-.95,0h-.339l.85,9.725.956,0ZM30.52,23.782H49.481a7.5,7.5,0,0,0-4.74-4.475,1.255,1.255,0,0,1-.668-.507,1.638,1.638,0,0,1-.769-1.124,1.378,1.378,0,0,1,.016-.457,1.4,1.4,0,0,1-.346-.834,1.362,1.362,0,0,1-.335-.313,1.385,1.385,0,0,1-.217-.406,1.393,1.393,0,0,1-.717-.55,1.41,1.41,0,0,1-.446-.1,1.363,1.363,0,0,1-.379-.235,1.549,1.549,0,0,1-.229.019,1.451,1.451,0,0,1-.237-.01A1.384,1.384,0,0,1,40,14.663a1.348,1.348,0,0,1-.413.122,1.446,1.446,0,0,1-.237.01,1.311,1.311,0,0,1-.229-.019,1.354,1.354,0,0,1-.379.235,1.383,1.383,0,0,1-.445.1,1.367,1.367,0,0,1-.314.335,1.4,1.4,0,0,1-.4.216,1.421,1.421,0,0,1-.551.719,1.374,1.374,0,0,1-.1.445,1.39,1.39,0,0,1-.241.388,1.38,1.38,0,0,1,.015.457,1.636,1.636,0,0,1-.769,1.124,1.242,1.242,0,0,1-.668.507A7.5,7.5,0,0,0,30.52,23.782Zm17.41,1.382h-.844l.851,9.728h.838Zm-1.781,0h-.717l.383,9.733,1.178,0Zm-1.653,0H43.65l.383,9.736.847,0Zm-1.782,0h-.378V34.9H43.1Zm-2.159,0V34.9l.845,0V25.164Zm-1.545,0-.385,9.744.994,0V25.164Zm-1.782,0-.385,9.746.847,0,.383-9.744Zm-1.653,0-.846,9.749,1.18,0,.383-9.747Zm-1.781,0-.847,9.751h.838l.852-9.749h-.843Zm-1.276,0-1.472,9.752h.959l.853-9.752Zm-3.254,9.754h.831l1.473-9.754h-.832Zm-.086-9.735L27.247,34.92h1.067l1.472-9.755h-.414A1.371,1.371,0,0,1,29.178,25.183Zm-3.7,9.7c.236.008.532.016.817.021l1.933-9.718h-.675a.2.2,0,0,0-.164.059Zm-2.019,2.13a2.559,2.559,0,0,1-.318-.247A2.658,2.658,0,0,0,23.454,37.011Zm1.2.321.033,0Zm-.323-.038.052.007Zm-.452-.089.031.009Zm-.14-.045.019.007Zm-.123-.054.015.008Zm-.093-.052.021.012Zm31.356.314.029,0c-.511.032-1.194.051-2.129.051h-24.3l.132,2.9,1.185-.564a1.067,1.067,0,0,1,1.471.627l1.13,3.39a1.067,1.067,0,1,1-2.025.675L29.62,42.2l-1.547.736a1.067,1.067,0,0,1-1.525-.915l-.209-4.611c-.516-.009-.934-.024-1.272-.046l.015,0a12.323,12.323,0,0,0-1.325,7.4,14.024,14.024,0,0,0,1.98,5.138c.072.122.137.232.193.331a1.066,1.066,0,0,1-.118,1.226c-.1.121-2.551,3.063-.568,5.84,1.319,1.847,2.474,1.819,3.638,1.4l.058-.021c.266-.1.532-.213.8-.33.13-.057.256-.112.377-.163a1.068,1.068,0,1,1,.821,1.971c-.111.046-.225.1-.345.149l-.269.116c-.036,1.35-.055,3.074.013,3.646.058.481.1.689.257.849s.675.476,2.111.6h.647V61.56a1.067,1.067,0,0,1,2.135,0v4.153a6.065,6.065,0,0,0,1.946.43H38.89V61.56a1.068,1.068,0,0,1,2.135,0v4.584h1.762a5.009,5.009,0,0,0,1.365-.234V61.56a1.067,1.067,0,0,1,2.135,0v3.955h1.228c1.436-.119,1.939-.424,2.111-.6s.2-.368.256-.839c.075-.636.044-2.433.012-3.529-.206-.083-.4-.167-.572-.243-.12-.052-.235-.1-.345-.148a1.068,1.068,0,0,1,.821-1.971c.121.051.247.1.377.162,1.469.64,2.854,1.245,4.5-1.053,1.983-2.776-.466-5.718-.571-5.842a1.076,1.076,0,0,1-.116-1.224c.064-.112.14-.239.226-.384a14.2,14.2,0,0,0,2.036-5.2A11.721,11.721,0,0,0,54.878,37.368Zm.419-.031h0Zm.359-.041L55.6,37.3Zm.24-.038h0Zm.22-.052-.031.009Zm.144-.045-.022.008Zm.123-.054-.015.008Zm.094-.052-.021.012Zm.069-.044a2.512,2.512,0,0,0,.323-.25A2.512,2.512,0,0,1,56.546,37.011ZM40.126,51.1c-1.377,0-2.339,3.614-2.492,5a2.492,2.492,0,1,0,4.983,0C42.464,54.71,41.5,51.1,40.126,51.1Z" transform="translate(1.462 2.667)"/>
  </g>
</svg>
