<svg xmlns="http://www.w3.org/2000/svg" xmlns:xlink="http://www.w3.org/1999/xlink" width="152.926" height="170.631" viewBox="0 0 152.926 170.631">
  <defs>
    <filter id="Escudo" x="0" y="0" width="152.926" height="170.631" filterUnits="userSpaceOnUse">
      <feOffset dy="5" input="SourceAlpha"/>
      <feGaussianBlur stdDeviation="10" result="blur"/>
      <feFlood flood-opacity="0.161"/>
      <feComposite operator="in" in2="blur"/>
      <feComposite in="SourceGraphic"/>
    </filter>
  </defs>
  <g id="Escudo-2" data-name="Escudo" transform="translate(35 30.301)">
    <g transform="matrix(1, 0, 0, 1, -35, -30.3)" filter="url(#Escudo)">
      <g id="Escudo-3" data-name="Escudo" transform="translate(19 21.3)" fill="#f8f8f8">
        <path d="M 57.46343612670898 111.6651611328125 L 56.59698867797852 111.3450164794922 C 47.36740493774414 107.9349136352539 39.33945083618164 102.7332534790039 32.73611450195312 95.88455963134766 C 26.64011383056641 89.56201934814453 21.87458992004395 81.97422027587891 18.57191276550293 73.3319091796875 C 17.01714324951172 69.26345062255859 15.79974365234375 64.97193908691406 14.9535436630249 60.57657241821289 C 14.12752819061279 56.28607940673828 13.6484203338623 51.86312866210938 13.52952861785889 47.43057250976562 C 13.41219043731689 43.05592727661133 13.64485168457031 38.64641952514648 14.22102069854736 34.32452774047852 C 14.79675960540771 30.00597381591797 15.71832847595215 25.75335693359375 16.96015930175781 21.6848201751709 L 17.32909774780273 20.47604942321777 L 18.52122116088867 20.05644989013672 L 56.63340377807617 6.641819477081299 L 57.46345138549805 6.349665641784668 L 58.29348373413086 6.641819477081299 L 96.40444946289062 20.05644989013672 L 97.59651184082031 20.47604942321777 L 97.96548461914062 21.68472671508789 C 99.20745086669922 25.75326538085938 100.1291732788086 30.00588035583496 100.7050170898438 34.32446670532227 C 101.2813262939453 38.64634323120117 101.5140838623047 43.05586624145508 101.3968353271484 47.43052673339844 C 101.2780380249023 51.86307907104492 100.7990036010742 56.28603363037109 99.97305297851562 60.57654190063477 C 99.12689971923828 64.97190856933594 97.90956115722656 69.26342010498047 96.35482025146484 73.33189392089844 C 93.05223846435547 81.97418975830078 88.2867431640625 89.56200408935547 82.19074249267578 95.88455963134766 C 75.58743286132812 102.7332534790039 67.55947875976562 107.9349136352539 58.32988357543945 111.3450317382812 L 57.46343612670898 111.6651611328125 Z" stroke="none"/>
        <path d="M 57.46343612670898 9.000007629394531 L 19.35125732421875 22.41462707519531 C 9.697601318359375 54.04267883300781 20.45003509521484 95.32437133789062 57.46343612670898 108.9999694824219 C 94.47683715820312 95.32437133789062 105.2292709350586 54.04267883300781 95.57440185546875 22.41462707519531 L 57.46343612670898 9.000007629394531 M 57.46345520019531 3.699317932128906 L 99.61862182617188 18.53744506835938 L 100.3565444946289 20.95480346679688 C 101.6382522583008 25.15351867675781 102.5892333984375 29.54053497314453 103.1830902099609 33.99402618408203 C 103.7768936157227 38.44720458984375 104.0167236328125 42.99042510986328 103.8959274291992 47.49749755859375 C 103.7734909057617 52.06582641601562 103.2796020507812 56.625244140625 102.4279632568359 61.04913330078125 C 101.554328918457 65.58726501464844 100.296745300293 70.02001953125 98.69010925292969 74.22429656982422 C 95.26681518554688 83.18244171142578 90.32114410400391 91.05382537841797 83.99045562744141 97.61976623535156 C 77.123779296875 104.7416229248047 68.78183746337891 110.1484451293945 59.19632720947266 113.6900787353516 L 57.46343612670898 114.3303375244141 L 55.73054504394531 113.6900787353516 C 46.14505767822266 110.1484603881836 37.80309295654297 104.7416229248047 30.93641662597656 97.61976623535156 C 24.60572814941406 91.05384063720703 19.65999603271484 83.18247985839844 16.23663330078125 74.22433471679688 C 14.62996673583984 70.02008056640625 13.37230682373047 65.58731079101562 12.49863433837891 61.0492057800293 C 11.64694213867188 56.62533569335938 11.15296173095703 52.06591796875 11.03043365478516 47.49760437011719 C 10.9095458984375 42.99055480957031 11.14926910400391 38.44733428955078 11.74294281005859 33.99415588378906 C 12.336669921875 29.54069519042969 13.28750610351562 25.15367889404297 14.56905364990234 20.95498657226562 L 15.30694580078125 18.53744506835938 L 57.46345520019531 3.699317932128906 Z" stroke="none" fill="#fff"/>
      </g>
    </g>
    <path id="Calavera-Gorra" d="M38.458,38.542h.218C38.6,38.615,38.53,38.542,38.458,38.542Zm0,0h.218C38.6,38.615,38.53,38.542,38.458,38.542Zm5.808-7.986c2.178-2.9,1.96-7.406,1.96-7.406l-.072-2.9h0s-.073-9.656-.073-14.738c0-2.759-2.759-6.97-5.881-9a18.767,18.767,0,0,0-4.211-2.033,13.223,13.223,0,0,0-1.815-.508.436.436,0,0,0,.073-.29c.073-.944-1.162-1.815-2.686-1.96s-2.831.581-2.9,1.525h0A20.16,20.16,0,0,0,20.38-5.02c-5.808,2.614-8.495,6.244-8.64,11.834V8.194a15.7,15.7,0,0,1-.363,4.138c-.653,2.251-2.251,3.267-3.122,3.34a3.9,3.9,0,0,1-1.379-.363H6.8c-.145-.073-.363-.145-.508-.218-.363-.218-.726-.363-1.016-.508A4.637,4.637,0,0,0-.6,16.688a4.823,4.823,0,0,0,1.888,6.171A10.755,10.755,0,0,0,7.312,24.6a9.237,9.237,0,0,0,1.452-.073,11.987,11.987,0,0,0,1.96,6.1,5.783,5.783,0,0,0-1.162,2.686,6.469,6.469,0,0,0,1.307,5.228,6.723,6.723,0,0,0,4.719,2.323v3.122a4,4,0,0,0,3.194,3.848,9.446,9.446,0,0,0,3.049.218,9.471,9.471,0,0,0,5.663.653h0a8.59,8.59,0,0,0,1.888.145,10.078,10.078,0,0,0,3.775-.8,9.446,9.446,0,0,0,3.049-.218A4,4,0,0,0,39.4,43.987V40.865a6.544,6.544,0,0,0,4.574-2.323,6.405,6.405,0,0,0,1.307-5.228A5.115,5.115,0,0,0,44.266,30.556ZM39.039-1.68C41.507-.083,43.9,3.475,43.9,5.508c0,4.574.073,11.4.073,14.012a16.86,16.86,0,0,1-5.954-1.815,39.749,39.749,0,0,0-.508-20.329A17.339,17.339,0,0,0,39.039-1.68ZM13.918,6.887c.145-4.719,2.323-7.623,7.261-9.874A19.835,19.835,0,0,1,34.756-3.64a36.372,36.372,0,0,1,1.161,20.328c-.29-.145-.508-.29-.8-.436-5.01-2.831-11.254-6.316-20.256-6.316h-.944V6.887Zm-.363,6.026c.073-.291.145-.581.218-.8H15.08c8.422,0,14.158,3.194,19.167,6.026.29.145.581.363.871.508-1.67,1.96-5.082,5.591-10.6,5.082A28.211,28.211,0,0,1,9.562,17.56,7.09,7.09,0,0,0,13.555,12.914ZM9.708,22.061H9.49A9.009,9.009,0,0,1,2.52,20.9C1.068,19.883.85,18.5,1.359,17.56a2.417,2.417,0,0,1,3.194-1.016l.726.363.436.218a29.272,29.272,0,0,0,5.663,4.356A5.013,5.013,0,0,1,9.708,22.061Zm32.308,7.7a1.152,1.152,0,0,0-.363.726,1.094,1.094,0,0,0,.29.8l.363.363a3.614,3.614,0,0,1,.944,1.96,4.192,4.192,0,0,1-.871,3.412,4.368,4.368,0,0,1-3.7,1.525h-.29a5.606,5.606,0,0,1-1.888-.508,1.106,1.106,0,0,0-.871,2.033,16.452,16.452,0,0,0,1.743.581v3.267a1.8,1.8,0,0,1-1.453,1.742,8.113,8.113,0,0,1-1.6.218V41.446a1.089,1.089,0,1,0-2.178,0v4.719a7.25,7.25,0,0,1-3.412.436V41.446a1.089,1.089,0,1,0-2.178,0V46.6a7.251,7.251,0,0,1-3.412-.436V41.446a1.089,1.089,0,1,0-2.178,0v4.429a7.484,7.484,0,0,1-1.6-.218,1.8,1.8,0,0,1-1.452-1.742v-3.34a10.261,10.261,0,0,0,1.6-.508,1.106,1.106,0,1,0-.871-2.033,5.693,5.693,0,0,1-1.815.508H16.6a4.566,4.566,0,0,1-3.848-1.525,4.56,4.56,0,0,1-.871-3.412,3.61,3.61,0,0,1,.944-1.96l.363-.363a1.092,1.092,0,0,0,.291-.8.893.893,0,0,0-.363-.726c-1.525-1.38-1.96-4.211-2.033-5.808a11.545,11.545,0,0,0,2.686-1.162,29.369,29.369,0,0,0,10.6,3.122,7.035,7.035,0,0,0,1.234.073c6.244,0,10.019-4.429,11.543-6.317A18.554,18.554,0,0,0,44.194,21.7V23.15C44.121,24.384,43.831,28.087,42.016,29.757Zm-11.979-18.8a1.092,1.092,0,0,1-1.017-.726l-1.6-4.283L24.736,7.178a.922.922,0,0,1-.871,0,1,1,0,0,1-.581-.726L21.4-.083a1.15,1.15,0,0,1,.726-1.379A1.15,1.15,0,0,1,23.5-.736l1.525,5.372,2.541-1.162a.928.928,0,0,1,.871,0,1.031,1.031,0,0,1,.581.654L31.053,9.5A1.05,1.05,0,0,1,30.4,10.88.79.79,0,0,1,30.037,10.953ZM27.568,31.064c1.307,0,2.4,3.63,2.4,4.937a2.4,2.4,0,0,1-4.792,0C25.172,34.621,26.261,31.064,27.568,31.064Zm7.478-4.937a4.065,4.065,0,1,1-4.066,4.065A4.059,4.059,0,0,1,35.046,26.127Zm-14.956,0a4.065,4.065,0,1,1-4.066,4.065A4.013,4.013,0,0,1,20.09,26.127Z" transform="translate(13.584 22.55)" fill="#333"/>
  </g>
</svg>
