<svg xmlns="http://www.w3.org/2000/svg" xmlns:xlink="http://www.w3.org/1999/xlink" width="142.927" height="160" viewBox="0 0 142.927 160">
  <defs>
    <filter id="Escudo" x="0" y="0" width="142.927" height="160" filterUnits="userSpaceOnUse">
      <feOffset dy="5" input="SourceAlpha"/>
      <feGaussianBlur stdDeviation="10" result="blur"/>
      <feFlood flood-opacity="0.161"/>
      <feComposite operator="in" in2="blur"/>
      <feComposite in="SourceGraphic"/>
    </filter>
  </defs>
  <g id="Escudo-2" data-name="Escudo" transform="translate(30 25)">
    <g transform="matrix(1, 0, 0, 1, -30, -25)" filter="url(#Escudo)">
      <path id="Escudo-3" data-name="Escudo" d="M57.463,9,19.351,22.415C9.7,54.043,20.45,95.324,57.463,109c37.013-13.676,47.766-54.957,38.111-86.585Z" transform="translate(14 16)" fill="#f8f8f8"/>
    </g>
    <path id="Calavera-Parche" d="M26.454,30.88a1.81,1.81,0,0,1-.4,1.525,2.6,2.6,0,0,1-3.962.008,1.827,1.827,0,0,1-.412-1.529,32.325,32.325,0,0,1,1.871-4.622.529.529,0,0,1,.47-.3.521.521,0,0,1,.476.29A31.359,31.359,0,0,1,26.454,30.88ZM35.9,25.03a4.373,4.373,0,1,0-4.371,4.236A4.3,4.3,0,0,0,35.9,25.03Zm4.084.956a6.307,6.307,0,0,1,1.289,5.49,5.3,5.3,0,0,1-3,3.921,6.232,6.232,0,0,1-2.964.556c.021.181.044.367.064.532.25,2.019.561,4.532-1.178,5.206a10.818,10.818,0,0,1-3.451.694,3.923,3.923,0,0,1-1.154-.159,6.541,6.541,0,0,1-3.315.735,7.223,7.223,0,0,1-1.834-.211,3,3,0,0,1-.37-.131,5.836,5.836,0,0,1-2.215.342,8.278,8.278,0,0,1-2.471-.344,3.606,3.606,0,0,1-.834-.388c-1.449.452-3.753-.2-4.616-.538-1.739-.674-1.428-3.186-1.178-5.2.02-.166.044-.351.064-.533A6.231,6.231,0,0,1,9.859,35.4a5.3,5.3,0,0,1-3-3.921,6.306,6.306,0,0,1,1.288-5.49C5.875,24.129,5.536,19.849,5.5,19.28A18.312,18.312,0,0,1,24.061,1.229c10.247,0,18.574,8.07,18.574,17.988C42.6,19.839,42.26,24.128,39.981,25.986ZM8.258,22.195c7.715-.11,23.052-4.494,29.915-11.111A16.723,16.723,0,0,0,13.222,7.3l.086,3.924,1.4-.7A.915.915,0,0,1,16,11.092l.881,3.148a.915.915,0,1,1-1.763.493l-.582-2.078-1.7.855a.915.915,0,0,1-1.326-.8L11.43,9.086A15.527,15.527,0,0,0,7.655,19.217,12.684,12.684,0,0,0,8.258,22.195ZM33.232,36.736a10.1,10.1,0,0,1-.129-1.8,6.043,6.043,0,0,1-.533-.375.916.916,0,1,1,1.139-1.434,3.734,3.734,0,0,0,1.252.65,4.092,4.092,0,0,0,2.4-.275,3.248,3.248,0,0,0,1.791-2.432A4.268,4.268,0,0,0,37.568,26.6a1.039,1.039,0,0,1-.456-1.063,1.06,1.06,0,0,1,.821-.826c1.68-.361,2.442-3.9,2.547-5.56A15.247,15.247,0,0,0,39.2,13.03c-4.5,4.067-11.762,7.247-18.605,9.176V25.8a4.373,4.373,0,0,1-8.743,0V24.022c-.865.107-1.685.179-2.457.223a1.68,1.68,0,0,0,.809.469,1.061,1.061,0,0,1,.827.832,1.031,1.031,0,0,1-.469,1.062,4.268,4.268,0,0,0-1.579,4.463A3.25,3.25,0,0,0,10.772,33.5a4.093,4.093,0,0,0,2.4.275,3.965,3.965,0,0,0,1.3-.65.916.916,0,1,1,1.139,1.434,6.235,6.235,0,0,1-.576.4,10.37,10.37,0,0,1-.13,1.773,9.356,9.356,0,0,0-.073,3.05,7.784,7.784,0,0,0,2.8.505V36.812a1.08,1.08,0,0,1,2.158,0v3.713a6.375,6.375,0,0,0,3.2.254l0-3.582h0v-.12a1.079,1.079,0,0,1,2.157,0V37.2h.011l-.005,3.579a6.389,6.389,0,0,0,3.194-.255V36.813a1.079,1.079,0,0,1,2.157,0v3.479a7.83,7.83,0,0,0,2.8-.505A9.334,9.334,0,0,0,33.232,36.736Z" transform="translate(17.221 27.984)" fill="#333"/>
  </g>
</svg>
