<svg xmlns="http://www.w3.org/2000/svg" width="160" height="190" viewBox="0 0 160 190">
  <g id="Calavera" transform="translate(-880 -535)">
    <circle id="Fondo" cx="80" cy="80" r="80" transform="translate(880 550)"/>
    <g id="ico-CalaveraHP" transform="translate(891.392 548.747)">
      <g id="Grupo_40" data-name="Grupo 40" transform="translate(17.477 91.025)">
        <path id="Trazado_126" data-name="Trazado 126" d="M36.753,69.435c-.426,3.861,3.149,7.034,7.034,7.034s7.46-3.173,7.034-7.034c-.432-3.922-3.149-14.124-7.034-14.124S37.184,65.513,36.753,69.435Z" transform="translate(9.002 -18.591)" fill="#fff"/>
        <path id="Trazado_127" data-name="Trazado 127" d="M44.418,60.5A12.407,12.407,0,1,0,56.825,48.094,12.407,12.407,0,0,0,44.418,60.5Z" transform="translate(17.168 -26.14)" fill="#fff"/>
        <circle id="Elipse_19" data-name="Elipse 19" cx="12.407" cy="12.407" r="12.407" transform="translate(14.565 41.074) rotate(-67.5)" fill="#fff"/>
        <path id="Trazado_128" data-name="Trazado 128" d="M110.066,37.364a32.3,32.3,0,0,1,2.892,18.525,39.986,39.986,0,0,1-5.771,14.672c-.242.407-.458.767-.639,1.084a3.021,3.021,0,0,0,.329,3.454c.3.35,7.239,8.657,1.617,16.5-4.653,6.488-8.581,4.78-12.743,2.973q-.555-.242-1.07-.458a3.015,3.015,0,1,0-2.328,5.563c.312.131.639.272.978.419.5.215,1.039.45,1.623.685.09,3.094.179,8.168-.035,9.962-.16,1.332-.269,1.919-.725,2.371-.489.485-1.915,1.344-5.984,1.682h-3.48V103.627a3.026,3.026,0,0,0-6.052,0v12.28a14.257,14.257,0,0,1-3.87.659H69.814V103.627a3.026,3.026,0,0,0-6.052,0v12.937H59.635a17.281,17.281,0,0,1-5.516-1.213V103.627a3.026,3.026,0,0,0-6.052,0V114.8H46.233c-4.07-.338-5.5-1.2-5.984-1.682-.454-.45-.565-1.039-.727-2.4-.193-1.616-.14-6.484-.039-10.294.267-.113.522-.223.764-.329.339-.147.664-.288.978-.419A3.015,3.015,0,1,0,38.9,94.113q-.515.215-1.07.458c-.762.331-1.516.659-2.268.933-.055.018-.111.039-.164.059-3.3,1.172-6.574,1.252-10.313-3.963-5.623-7.838,1.317-16.145,1.609-16.487a3,3,0,0,0,.335-3.462c-.158-.278-.343-.589-.546-.933a39.488,39.488,0,0,1-5.612-14.506,33.9,33.9,0,0,1,2.816-18.848H17.159A39.09,39.09,0,0,0,14.887,57.1a43.856,43.856,0,0,0,5.9,15.859,25.25,25.25,0,0,0-2.8,5.571A17.443,17.443,0,0,0,20.162,95.1c4.487,6.253,9.214,7.5,13.232,7.079-.064,3.192-.094,7.415.127,9.275.489,4.092,1.888,8.524,12.353,9.359.08.006.16.01.24.01h5.434a23.3,23.3,0,0,0,8.09,1.772H74.808a23.316,23.316,0,0,0,8.09-1.772h5.434c.08,0,.16,0,.24-.01,10.465-.833,11.864-5.267,12.355-9.381a89.109,89.109,0,0,0,.115-9.189c.177.006.353.012.53.012,3.7,0,7.866-1.606,11.843-7.153a17.45,17.45,0,0,0,2.173-16.569,25.2,25.2,0,0,0-2.8-5.565,44.434,44.434,0,0,0,6.146-16.172,37.548,37.548,0,0,0-2.3-19.429Z" transform="translate(-14.476 -37.364)" fill="#fff"/>
        <path id="Trazado_129" data-name="Trazado 129" d="M21.7,48.466A3.013,3.013,0,0,0,26,51.05l4.368-2.079,2.114,6.339A3.013,3.013,0,1,0,38.2,53.4l-3.19-9.571a3.014,3.014,0,0,0-4.153-1.768L27.51,43.656l-.286-6.292H21.192Z" transform="translate(-7.451 -37.364)" fill="#fff"/>
      </g>
      <path id="Trazado_130" data-name="Trazado 130" d="M106.787,76.156c-3.21-.424-6.434-.786-9.635-1.023a144.328,144.328,0,0,0-41.308,2.292,10.015,10.015,0,0,1-5.081.135,7.092,7.092,0,0,1-3.1-2.316,12.59,12.59,0,0,1-1.095-1.612c.347.117.692.221,1.031.309a22.045,22.045,0,0,0,11.543-.46A57.835,57.835,0,0,0,66.2,70.8a60.5,60.5,0,0,1,5.764-2.261,37.816,37.816,0,0,1,13.463-2.021c6,.327,13.8,3.4,21.185,8.256,0,.063-.012.127,0,.19ZM101.4,40.868l1.548,9.3c-6.664,4.338-9.631,4.123-14,3.8-1.3-.1-2.768-.209-4.442-.209A49.384,49.384,0,0,0,73.971,55.78c-6.442,1.653-14.459,3.714-17.657,1.7A2.908,2.908,0,0,1,55,55.419a23.218,23.218,0,0,1-.021-7.065,82.584,82.584,0,0,1,5.245-18.6c2.52.274,7.705,1.234,8.485,4.462,2.54,10.545,7.855,15.892,15.8,15.892,3.818,0,7.212-2.713,10.492-5.336a33.908,33.908,0,0,1,4.276-3.1A8.839,8.839,0,0,1,101.4,40.868ZM33.785,66.257c8.761-2.3,9.124-4.818,9.138-5.8.078-.692.534-4.759,1.261-10.527.593-4.794,1.559-12.172,2.783-20.113,2.6-16.706,5.136-25.512,6.9-28.724a16.375,16.375,0,0,0,5.487,1.526,2.063,2.063,0,0,0,1.992-1.545c.154-.6,3.939-14.748,18.425-14.824,1.039.127,9.19,1.185,13.41,3.785,3.319,2.054,13.465,4.624,14.461,4.868a27.957,27.957,0,0,0,9.274,1.577,1.478,1.478,0,0,1,1.479,1.473,1.447,1.447,0,0,1-1.08,1.4A99.426,99.426,0,0,1,82.15,2.632,2.046,2.046,0,1,0,81.735,6.7,96.45,96.45,0,0,0,104.1,6.2c1.729,6.433,1.963,10.594.661,12.323a2.54,2.54,0,0,1-2.284.9c-1.121,0-2.2-.02-3.214-.059A51.694,51.694,0,0,1,86.7,17.478a2.047,2.047,0,1,0-1.3,3.881A54.425,54.425,0,0,0,98.69,23.421a30.731,30.731,0,0,0,6.7,12.246,7.44,7.44,0,0,1-2.45.716l-.06.008c-.045,0-.088.01-.133.018h-.008l0,0-.045.006-.366.07a15.788,15.788,0,0,0-5.033,1.606,37.32,37.32,0,0,0-4.859,3.489c-2.727,2.179-5.547,4.436-7.921,4.436-3.748,0-9.048-1.322-11.8-12.753-1.789-7.411-13.28-7.7-13.769-7.707a2,2,0,0,0-1.918,1.228,88.585,88.585,0,0,0-6.109,21.062,27.156,27.156,0,0,0,.062,8.338,6.913,6.913,0,0,0,3.146,4.749A11.523,11.523,0,0,0,60.3,62.378,64.4,64.4,0,0,0,75,59.743a48.75,48.75,0,0,1,9.512-1.9c1.52,0,2.848.1,4.134.2a21.156,21.156,0,0,0,15.108-3.552l.821,4.217a2.072,2.072,0,0,0,1.351,1.526,7.037,7.037,0,0,1,4.768,6.247,7.915,7.915,0,0,1-1.569,5.05c-8.048-5.336-16.712-8.726-23.472-9.093a41.44,41.44,0,0,0-14.929,2.206,65.265,65.265,0,0,0-6.155,2.4,53.2,53.2,0,0,1-6.551,2.5,17.976,17.976,0,0,1-9.4.434c-.464-.119-.938-.288-1.417-.458a12.235,12.235,0,0,0-3.666-.863,2.725,2.725,0,0,0-2.575,1.305,3.4,3.4,0,0,0,.778,3.611c.331.491.624,1,.92,1.508a19.961,19.961,0,0,0,1.826,2.76,10.962,10.962,0,0,0,4.98,3.6,10.18,10.18,0,0,0,3.23.493,18.963,18.963,0,0,0,4.031-.514,140.331,140.331,0,0,1,40.119-2.206c3.514.258,7.058.659,10.574,1.152l.481,3.2a113.693,113.693,0,0,1-36.74,5.418,154.3,154.3,0,0,1-41-5.584c.033-.575.08-1.283.146-2.089C30.9,74,32.214,68.348,33.785,66.257Zm35.323,34.574c-35.625,0-57.5-7.746-57.5-13.3,0-2.179,3.951-5.625,14.794-8.569-.07.685-.133,1.363-.187,2.017-.191,2.3-.232,3.857-.232,3.857a2.045,2.045,0,0,0,1.4,1.995,151.517,151.517,0,0,0,43.774,6.245c24.778,0,39.225-6.046,39.827-6.3a2.045,2.045,0,0,0,1.222-2.183l-.867-5.747c11.186,2.961,15.264,6.465,15.264,8.69C126.608,93.085,104.733,100.831,69.108,100.831Z" transform="translate(0 0)" fill="#fff"/>
    </g>
  </g>
</svg>
