<svg xmlns="http://www.w3.org/2000/svg" width="35" height="35" viewBox="0 0 35 35">
  <path id="ico-Spotify" d="M261.5,279A17.5,17.5,0,1,0,244,261.5,17.506,17.506,0,0,0,261.5,279Zm7.105-9.252h0c-1.177,0-4.894-4.124-15.342-1.983a4.5,4.5,0,0,1-.84.184,1.159,1.159,0,0,1-.155-2.3c5.779-1.276,11.686-1.164,16.723,1.849a1.174,1.174,0,0,1-.386,2.25Zm1.9-4.627c-.165-.044-.117.1-.871-.3A22.867,22.867,0,0,0,252.8,262.75a2.9,2.9,0,0,1-.84.184,1.435,1.435,0,0,1-.274-2.829,25.564,25.564,0,0,1,19.391,2.25,1.472,1.472,0,0,1,.8,1.39A1.368,1.368,0,0,1,270.505,265.121Zm-19.873-10.916c6.6-1.931,16.578-1.321,22.785,2.3a1.716,1.716,0,0,1-.726,3.237h0a1.625,1.625,0,0,1-.911-.276c-5.021-3-14.006-3.717-19.819-2.094a3.4,3.4,0,0,1-.911.182,1.628,1.628,0,0,1-1.644-1.665,1.667,1.667,0,0,1,1.228-1.684Z" transform="translate(-244 -244)" fill="#fff"/>
</svg>
