<svg xmlns="http://www.w3.org/2000/svg" width="29" height="35" viewBox="0 0 29 35">
  <g id="Grupo_16" data-name="Grupo 16" transform="translate(-241.5 -238.5)">
    <path id="Trazado_32" data-name="Trazado 32" d="M251.114,273.5c-5.262-.03-9.614-10.663-9.614-16.079,0-8.846,6.7-10.782,9.287-10.782a10.767,10.767,0,0,1,3.5.853,7.9,7.9,0,0,0,2,.568,6.3,6.3,0,0,0,1.436-.461,11.59,11.59,0,0,1,4.326-1.035h.01a8.9,8.9,0,0,1,7.421,3.71l.541.8-.779.581a6.485,6.485,0,0,0-3.143,5.351,6.038,6.038,0,0,0,3.4,5.582c.488.291.993.59.993,1.245,0,.428-3.448,9.609-8.454,9.609a6.863,6.863,0,0,1-2.855-.686,5.838,5.838,0,0,0-2.541-.606,6.608,6.608,0,0,0-2.012.539,9.939,9.939,0,0,1-3.489.806Z" fill="#fff"/>
    <path id="Trazado_33" data-name="Trazado 33" d="M262.583,238.5c.131,4.654-3.231,7.882-6.589,7.68C255.441,242.466,259.351,238.5,262.583,238.5Z" fill="#fff"/>
  </g>
</svg>
