<svg xmlns="http://www.w3.org/2000/svg" width="35" height="24" viewBox="0 0 35 24">
  <path id="ico-Youtube" d="M272.012,246.281c-.949-1.684-1.979-1.994-4.077-2.112-2.1-.142-7.365-.2-11.931-.2s-9.846.059-11.939.2c-2.093.12-3.126.428-4.084,2.114-.978,1.683-1.481,4.58-1.481,9.681v.018c0,5.079.5,8,1.481,9.663.958,1.685,1.988,1.99,4.082,2.132,2.1.122,7.367.194,11.941.194s9.835-.072,11.933-.192c2.1-.142,3.128-.448,4.078-2.131.986-1.666,1.485-4.584,1.485-9.664v-.017C273.5,250.861,273,247.964,272.012,246.281Zm-20.387,16.234V249.424l10.937,6.545Z" transform="translate(-238.5 -243.969)" fill="#fff"/>
</svg>
