<svg xmlns="http://www.w3.org/2000/svg" xmlns:xlink="http://www.w3.org/1999/xlink" width="24" height="20" viewBox="0 0 24 20">
  <defs>
    <clipPath id="clip-path">
      <rect id="Rectángulo_29" data-name="Rectángulo 29" width="24" height="20" fill="#fff"/>
    </clipPath>
  </defs>
  <g id="ico-Twitter" clip-path="url(#clip-path)">
    <path id="Trazado_132" data-name="Trazado 132" d="M21.542,4.98q.015.326.015.655C21.557,12.3,16.608,20,7.548,20A13.671,13.671,0,0,1,0,17.732a10.334,10.334,0,0,0,1.175.069,9.72,9.72,0,0,0,6.114-2.161,4.943,4.943,0,0,1-4.6-3.5,4.759,4.759,0,0,0,.925.088,4.686,4.686,0,0,0,1.3-.18A5.022,5.022,0,0,1,.965,7.1V7.033A4.82,4.82,0,0,0,3.2,7.664a5.083,5.083,0,0,1-2.189-4.2A5.114,5.114,0,0,1,1.674.923,13.857,13.857,0,0,0,11.821,6.2a5.279,5.279,0,0,1-.128-1.15A4.987,4.987,0,0,1,16.618,0a4.862,4.862,0,0,1,3.592,1.6A9.789,9.789,0,0,0,23.338.37a5.046,5.046,0,0,1-2.165,2.793A9.691,9.691,0,0,0,24,2.369,10.114,10.114,0,0,1,21.542,4.98" transform="translate(0 0)" fill="#fff"/>
  </g>
</svg>
