<svg id="ico-Instagram-Footer" xmlns="http://www.w3.org/2000/svg" width="35" height="35" viewBox="0 0 35 35">
  <g id="Grupo_11" data-name="Grupo 11">
    <g id="Grupo_10" data-name="Grupo 10">
      <path id="Trazado_25" data-name="Trazado 25" d="M24.063,0H10.938A10.939,10.939,0,0,0,0,10.938V24.063A10.939,10.939,0,0,0,10.938,35H24.063A10.939,10.939,0,0,0,35,24.063V10.938A10.939,10.939,0,0,0,24.063,0Zm7.656,24.063a7.665,7.665,0,0,1-7.656,7.656H10.938a7.665,7.665,0,0,1-7.656-7.656V10.938a7.665,7.665,0,0,1,7.656-7.656H24.063a7.665,7.665,0,0,1,7.656,7.656Z" fill="#fff"/>
    </g>
  </g>
  <g id="Grupo_13" data-name="Grupo 13" transform="translate(8.75 8.75)">
    <g id="Grupo_12" data-name="Grupo 12">
      <path id="Trazado_26" data-name="Trazado 26" d="M136.75,128a8.75,8.75,0,1,0,8.75,8.75A8.75,8.75,0,0,0,136.75,128Zm0,14.219a5.469,5.469,0,1,1,5.469-5.469A5.476,5.476,0,0,1,136.75,142.219Z" transform="translate(-128 -128)" fill="#fff"/>
    </g>
  </g>
  <g id="Grupo_15" data-name="Grupo 15" transform="translate(25.74 6.928)">
    <g id="Grupo_14" data-name="Grupo 14">
      <circle id="Elipse_11" data-name="Elipse 11" cx="1.166" cy="1.166" r="1.166" fill="#fff"/>
    </g>
  </g>
</svg>
