<svg xmlns="http://www.w3.org/2000/svg" width="31" height="35" viewBox="0 0 31 35">
  <g id="ico-Playstore" transform="translate(-240.967 -238.5)">
    <path id="Trazado_28" data-name="Trazado 28" d="M241.608,239.789a3.21,3.21,0,0,0-.641,1.942v28.537a3.215,3.215,0,0,0,.557,1.824l15.444-16.2Z" fill="#fff"/>
    <path id="Trazado_29" data-name="Trazado 29" d="M258.382,254.413l5.01-5.254-17.611-10.222a3.158,3.158,0,0,0-2.46-.318Z" fill="#fff"/>
    <path id="Trazado_30" data-name="Trazado 30" d="M258.382,257.379l-15.213,15.954a3.141,3.141,0,0,0,1.007.167,3.187,3.187,0,0,0,1.605-.438l17.738-10.3Z" fill="#fff"/>
    <path id="Trazado_31" data-name="Trazado 31" d="M270.362,253.205l-5.149-2.989L259.8,255.9l5.543,5.813,5.023-2.915a3.235,3.235,0,0,0,0-5.589Z" fill="#fff"/>
  </g>
</svg>
